{
  "accessors": [
    {
      "bufferView": 2,
      "componentType": 5126,
      "count": 33587,
      "max": [
        55.071407318115234,
        23.522695541381836,
        61.93770217895508
      ],
      "min": [
        -37.047393798828125,
        -52.66440963745117,
        -74.7615966796875
      ],
      "type": "VEC3"
    },
    {
      "bufferView": 2,
      "byteOffset": 403044,
      "componentType": 5126,
      "count": 33587,
      "max": [
        0.9999863505363464,
        0.9999836683273315,
        0.9999913573265076
      ],
      "min": [
        -0.9999969005584717,
        -0.9999412298202515,
        -0.9999977350234985
      ],
      "type": "VEC3"
    },
    {
      "bufferView": 1,
      "componentType": 5126,
      "count": 33587,
      "max": [
        0.9974200129508972,
        0.997310996055603
      ],
      "min": [
        0.006579999811947346,
        0.014399999752640724
      ],
      "type": "VEC2"
    },
    {
      "bufferView": 0,
      "componentType": 5125,
      "count": 196872,
      "type": "SCALAR"
    }
  ],
  "asset": {
    "extras": {
      "author": "Virtual Museums of Małopolska (https://sketchfab.com/WirtualneMuzeaMalopolski)",
      "license": "CC0-1.0 (http://creativecommons.org/publicdomain/zero/1.0/)",
      "source": "https://sketchfab.com/3d-models/porcelain-perfume-bottle-a177d1813e67467bbe7262b81186de23",
      "title": "Porcelain perfume bottle"
    },
    "generator": "Sketchfab-12.68.0",
    "version": "2.0"
  },
  "bufferViews": [
    {
      "buffer": 0,
      "byteLength": 787488,
      "name": "floatBufferViews",
      "target": 34963
    },
    {
      "buffer": 0,
      "byteLength": 268696,
      "byteOffset": 787488,
      "byteStride": 8,
      "name": "floatBufferViews",
      "target": 34962
    },
    {
      "buffer": 0,
      "byteLength": 806088,
      "byteOffset": 1056184,
      "byteStride": 12,
      "name": "floatBufferViews",
      "target": 34962
    }
  ],
  "buffers": [
    {
      "byteLength": 1862272,
      "uri": "scene.bin"
    }
  ],
  "images": [
    {
      "uri": "textures/02_ps_uv_baseColor.jpeg"
    },
    {
      "uri": "textures/02_ps_uv_metallicRoughness.png"
    }
  ],
  "materials": [
    {
      "doubleSided": true,
      "name": "02_ps_uv",
      "occlusionTexture": {
        "index": 1
      },
      "pbrMetallicRoughness": {
        "baseColorTexture": {
          "index": 0
        },
        "metallicFactor": 0.5443978659,
        "metallicRoughnessTexture": {
          "index": 1
        },
        "roughnessFactor": 0.10194359760000005
      }
    }
  ],
  "meshes": [
    {
      "name": "Object_0",
      "primitives": [
        {
          "attributes": {
            "NORMAL": 1,
            "POSITION": 0,
            "TEXCOORD_0": 2
          },
          "indices": 3,
          "material": 0,
          "mode": 4
        }
      ]
    }
  ],
  "nodes": [
    {
      "children": [
        1
      ],
      "matrix": [
        0.001101346337236464,
        0.0,
        0.0,
        0.0,
        0.0,
        4.218224593115761e-05,
        -0.0011005382428892624,
        0.0,
        0.0,
        0.0011005382428892624,
        4.218224593115761e-05,
        0.0,
        0.0,
        0.5533658266067504,
        0.25627201795578014,
        1.0
      ],
      "name": "Sketchfab_model"
    },
    {
      "children": [
        2
      ],
      "name": "02_ps_uv.obj.cleaner.materialmerger.gles"
    },
    {
      "mesh": 0,
      "name": "Object_2"
    }
  ],
  "samplers": [
    {
      "magFilter": 9729,
      "minFilter": 9987,
      "wrapS": 10497,
      "wrapT": 10497
    }
  ],
  "scene": 0,
  "scenes": [
    {
      "name": "Sketchfab_Scene",
      "nodes": [
        0
      ]
    }
  ],
  "textures": [
    {
      "sampler": 0,
      "source": 0
    },
    {
      "sampler": 0,
      "source": 1
    }
  ]
}
